<svg version="1.1" id="Layer_1" xmlns="http://www.w3.org/2000/svg" xmlns:xlink="http://www.w3.org/1999/xlink" x="0px" y="0px"
	 width="100%" viewBox="0 0 450 333" enable-background="new 0 0 450 333" xml:space="preserve">
<path fill="none" opacity="1.000000" stroke="#000000" stroke-linecap="round" stroke-linejoin="round" stroke-width="6.000000"
	d="
M262.000000,273.500000 
	C257.038025,267.008423 258.007843,259.407440 258.005310,252.000000 
	C257.993317,217.166672 258.000000,182.333328 258.000000,147.500000 
	C258.000000,135.666672 258.008972,123.833321 257.991486,112.000015 
	C257.988464,109.948181 258.574036,107.534103 255.499313,107.003990 
	C252.750275,106.530022 252.455444,108.285049 251.320938,110.404129 
	C246.868423,118.720726 237.935974,116.217064 235.663727,110.435646 
	C234.079590,106.404984 231.386108,106.973160 228.500458,107.025261 
	C225.914993,107.071953 223.738434,106.313560 222.198837,110.386147 
	C219.898727,116.470505 211.825317,118.377716 206.577652,110.945175 
	C205.604935,109.567482 205.339706,107.355453 203.486771,107.093559 
	C200.872330,106.724037 198.166122,106.967331 195.500214,107.012291 
	C193.908081,107.039139 193.996246,108.567657 193.520050,109.510132 
	C189.730362,117.010735 182.390717,117.765770 177.578522,110.944603 
	C176.606186,109.566345 176.339706,107.355446 174.486771,107.093559 
	C171.872330,106.724037 169.166550,106.985283 166.500046,107.006340 
	C165.208130,107.016533 165.177994,108.176018 164.740341,108.994835 
	C160.120926,117.637451 154.149338,117.998268 148.493088,110.004890 
	C147.877716,109.135262 147.332016,108.013161 146.465958,107.565910 
	C144.598618,106.601578 142.473694,106.077187 141.793518,109.010094 
	C141.459152,110.451874 141.510895,111.999977 141.510498,113.500000 
	C141.497742,161.833328 141.608963,210.167114 141.411453,258.499634 
	C141.370132,268.615540 148.631836,275.803741 158.502319,275.664001 
	C189.829376,275.220612 221.166687,275.483673 252.499985,275.514008 
	C258.666748,275.519989 264.725342,274.383636 271.030060,275.291077 
	C277.462189,276.216858 283.525635,270.082947 283.964081,263.497620 
	C284.254822,259.130890 283.611694,254.753510 285.406097,250.460754 
	C286.591553,247.624771 283.892639,245.046432 283.909271,241.999512 
	C284.062988,213.833679 284.097107,185.666031 283.912842,157.500565 
	C283.878601,152.264999 286.276306,148.055130 288.000000,143.500000 
"/>
<path fill="none" opacity="1.000000" stroke="#000000" stroke-linecap="round" stroke-linejoin="round" stroke-width="6.000000"
	d="
M286.000000,248.500000 
	C286.666656,248.166672 287.424835,247.944641 287.986176,247.483185 
	C295.517731,241.292068 298.248199,241.587067 303.962616,249.526917 
	C305.157593,251.187286 306.252197,252.629578 308.493866,251.978851 
	C310.826111,251.301804 310.495300,249.281281 310.495667,247.500000 
	C310.501709,217.166672 310.438812,186.833130 310.535156,156.500107 
	C310.566345,146.682281 302.501099,139.433548 293.050781,142.175095 
	C288.811615,143.404892 285.358368,141.380295 281.499146,141.457520 
	C274.168732,141.604202 266.833344,141.500000 259.500000,141.500000 
"/>
<path fill="none" opacity="1.000000" stroke="#000000" stroke-linecap="round" stroke-linejoin="round" stroke-width="6.000000"
	d="
M229.500000,214.500000 
	C205.833328,214.500000 182.166672,214.500000 158.500000,214.500000 
"/>
<path fill="none" opacity="1.000000" stroke="#000000" stroke-linecap="round" stroke-linejoin="round" stroke-width="6.000000"
	d="
M229.500000,243.500000 
	C205.833328,243.500000 182.166672,243.500000 158.500000,243.500000 
"/>
<path fill="none" opacity="1.000000" stroke="#000000" stroke-linecap="round" stroke-linejoin="round" stroke-width="7.000000"
	d="
M229.000000,229.000000 
	C205.666672,229.000000 182.333328,229.000000 159.000000,229.000000 
"/>
<path fill="none" opacity="1.000000" stroke="#000000" stroke-linecap="round" stroke-linejoin="round" stroke-width="7.000000"
	d="
M229.000000,258.000000 
	C205.666672,258.000000 182.333328,258.000000 159.000000,258.000000 
"/>
<path fill="none" opacity="1.000000" stroke="#000000" stroke-linecap="round" stroke-linejoin="round" stroke-width="7.000000"
	d="
M223.000000,200.000000 
	C207.666672,200.000000 192.333328,200.000000 177.000000,200.000000 
"/>
<path fill="none" opacity="1.000000" stroke="#000000" stroke-linecap="round" stroke-linejoin="round" stroke-width="6.000000"
	d="
M211.000000,136.000000 
	C205.833328,136.600723 200.708786,134.963593 195.487747,135.934082 
	C190.605606,136.841568 188.300018,139.021317 188.499985,143.500000 
	C188.682526,147.588577 191.924118,150.437424 196.500061,150.494873 
	C198.833023,150.524170 201.166977,150.475998 203.499939,150.505127 
	C208.015991,150.561523 211.417603,153.550461 211.500000,157.500000 
	C211.585480,161.596222 208.954086,164.698853 204.496429,164.931625 
	C199.011383,165.218048 193.500000,165.000000 188.000000,165.000000 
"/>
<path fill="none" opacity="1.000000" stroke="#000000" stroke-linecap="round" stroke-linejoin="round" stroke-width="6.000000"
	d="
M217.500000,185.500000 
	C205.833328,185.500000 194.166672,185.500000 182.500000,185.500000 
"/>
</svg>