<svg version="1.1" id="Layer_1" xmlns="http://www.w3.org/2000/svg" xmlns:xlink="http://www.w3.org/1999/xlink" x="0px" y="0px"
	 width="100%" viewBox="0 0 208 224" enable-background="new 0 0 208 224" xml:space="preserve">
<path fill="#000000" opacity="1.000000" stroke="none" 
	d="
M209.000000,123.571533 
	C164.052155,122.700089 119.094719,123.357750 74.140968,123.396080 
	C64.824486,123.404022 55.509464,123.959801 46.191364,124.136673 
	C44.012726,124.178024 41.166149,124.994247 40.344097,121.807961 
	C39.505066,118.555878 42.118351,118.158081 44.337708,117.282494 
	C45.987503,116.631607 47.195290,114.992126 49.156662,114.847137 
	C50.145111,114.774063 51.568352,114.193573 52.052277,114.642723 
	C59.329617,121.397202 68.484543,118.141907 76.443497,118.314926 
	C114.724991,119.147102 153.038742,119.687454 191.324249,118.076126 
	C196.982483,117.837975 202.593506,119.497231 208.615677,118.094070 
	C209.000000,119.714355 209.000000,121.428719 209.000000,123.571533 
z"/>
<path fill="#000000" opacity="1.000000" stroke="none" 
	d="
M92.336578,145.667847 
	C100.343422,148.635468 108.013252,151.402817 115.613327,154.350021 
	C120.539871,156.260498 123.485298,160.888458 122.484581,164.667999 
	C120.897736,170.661240 114.639542,176.294006 109.912575,175.375351 
	C101.906532,173.819397 94.231491,171.172394 87.131004,167.108444 
	C90.271347,159.150665 83.902428,148.710083 75.030586,148.896790 
	C68.557831,149.033005 62.317585,147.661835 56.191574,144.857452 
	C47.055359,140.675034 40.951969,143.934082 37.709583,153.441467 
	C34.514309,162.810699 33.997566,172.238953 36.444271,181.870590 
	C37.101154,184.456451 38.127365,185.951950 41.001415,186.187927 
	C43.956516,186.430557 46.769562,187.665253 49.850609,187.453049 
	C51.324516,187.351547 53.221199,187.899124 53.643906,189.406189 
	C55.159763,194.810654 59.265827,192.803055 62.644283,192.772064 
	C64.321808,192.756683 65.280754,191.853088 65.498413,189.976334 
	C66.312485,182.956940 73.862328,181.942444 77.207413,177.126099 
	C77.633575,176.512497 78.778130,176.738586 79.524437,177.258255 
	C87.152641,182.569962 96.660492,183.334213 104.739098,187.700867 
	C107.928062,189.424561 111.919266,188.471634 115.267738,186.624863 
	C132.877655,176.912552 150.427826,167.090500 168.105789,157.503952 
	C172.548676,155.094604 177.208115,152.356384 182.558395,155.812256 
	C184.635651,157.154022 186.910980,158.261093 185.251404,161.152206 
	C184.028259,163.283051 187.046936,163.655746 186.591965,165.519073 
	C185.858185,168.524261 184.822357,171.402313 182.411224,173.301620 
	C176.895340,177.646576 170.539795,180.615280 164.251251,183.652084 
	C163.495712,184.016953 162.619080,183.863571 161.549103,182.521255 
	C167.377121,176.874283 173.295441,171.139816 179.213760,165.405350 
	C178.886017,164.924622 178.558289,164.443878 178.230560,163.963150 
	C174.172760,163.891296 170.254547,165.024048 166.758698,167.070358 
	C162.844162,169.361740 158.805664,171.269882 154.491150,172.537735 
	C152.359467,173.164169 151.042114,174.350037 150.172440,176.292725 
	C149.080063,178.732895 147.732391,181.270645 149.308548,183.825165 
	C150.916336,186.431000 153.679459,185.529541 156.598251,185.117935 
	C154.277313,190.843338 149.068481,192.820526 144.740860,195.291275 
	C136.651474,199.909729 128.901672,205.049240 120.939247,209.853638 
	C115.014420,213.428589 109.057671,214.113449 102.328445,211.979996 
	C89.609337,207.947479 77.293396,202.934982 65.174393,197.453476 
	C54.907864,192.809830 44.492821,191.833374 33.626541,194.474518 
	C30.391565,195.260788 29.151554,193.371140 29.471287,190.617630 
	C31.047956,177.039337 29.344942,163.448318 29.800879,149.870895 
	C30.027088,143.134583 34.463207,138.721359 40.767300,136.142334 
	C55.028839,130.307907 67.766281,134.512619 80.497070,140.634369 
	C84.242294,142.435318 88.141396,143.916275 92.336578,145.667847 
z"/>
<path fill="#000000" opacity="1.000000" stroke="none" 
	d="
M169.133316,52.885891 
	C168.455475,52.117519 168.089905,51.440170 167.529480,51.175629 
	C160.213440,47.722195 155.987823,40.965324 150.606506,35.446190 
	C148.793060,33.586311 146.517227,32.016171 143.996201,32.542530 
	C139.957214,33.385815 136.467896,32.298218 132.882690,30.835537 
	C125.895142,27.984783 119.985909,31.162952 114.122200,34.383984 
	C112.815262,35.101910 111.650330,36.108757 110.298981,36.710991 
	C79.718712,50.339252 61.745098,73.889519 55.255196,106.507172 
	C54.996136,107.809189 54.897057,109.185005 54.392899,110.387901 
	C53.188210,113.262253 50.679913,113.542114 48.091370,112.917381 
	C45.423180,112.273430 45.812019,110.045662 46.005878,108.030701 
	C47.678875,90.641609 52.916237,74.467125 63.849483,60.704071 
	C74.673370,47.078682 87.567451,36.076790 105.093819,31.674267 
	C111.350807,30.102545 117.258644,27.117474 124.011139,27.939722 
	C125.770363,28.153948 127.296120,27.202713 127.651611,25.224489 
	C128.028152,23.129181 127.190956,21.725323 125.109222,20.992842 
	C123.590927,20.458609 121.956871,19.975334 121.085747,18.376078 
	C125.942940,14.662867 131.978683,14.433657 137.644440,17.689342 
	C137.425888,20.028435 135.430862,20.330446 133.780396,20.927490 
	C131.962372,21.585135 131.047638,22.760656 131.225067,24.694407 
	C131.422424,26.845354 132.901291,27.170811 134.742310,27.373667 
	C150.719284,29.134129 165.386002,34.480267 178.267120,44.155548 
	C190.626907,53.439255 199.814484,65.175674 205.436844,79.765144 
	C207.565308,85.288307 205.320694,89.285217 203.093521,93.675209 
	C201.153076,93.249298 201.307724,91.683228 200.854095,90.524429 
	C200.188889,88.825180 200.034134,86.509499 198.805344,85.517761 
	C192.641495,80.543076 191.594131,73.162689 189.028473,66.423363 
	C184.397095,54.257870 174.542328,47.341812 163.405640,41.863186 
	C162.653885,41.493359 161.829971,41.269821 160.771652,42.606960 
	C168.283707,46.068790 174.430511,51.125519 178.752640,58.105381 
	C182.882675,64.775017 186.304291,71.727303 186.017807,79.885918 
	C179.198685,71.671310 175.314209,61.784458 169.133316,52.885891 
z"/>
<path fill="#000000" opacity="1.000000" stroke="none" 
	d="
M77.189766,85.031006 
	C74.679268,88.014381 77.117378,90.728676 77.044121,93.433701 
	C76.883194,99.376465 75.957115,105.326317 76.941940,111.420479 
	C75.620338,112.959671 72.407661,112.345009 72.544861,115.664680 
	C71.742073,115.173378 71.393074,114.839424 70.983253,114.726868 
	C63.788124,112.750648 65.815956,107.030197 66.662132,102.589363 
	C70.712074,81.334824 81.575325,63.852001 97.337318,49.264122 
	C98.744293,47.961952 100.068832,46.246265 102.988998,47.543652 
	C100.484634,51.408604 98.134727,55.327011 94.610817,57.925243 
	C88.123863,62.708164 84.558640,69.277008 81.918098,76.501381 
	C80.809456,79.534531 79.185623,82.159821 77.189766,85.031006 
z"/>
<path fill="#000000" opacity="1.000000" stroke="none" 
	d="
M4.998579,150.311462 
	C8.994971,144.465134 16.751173,142.945816 22.055361,146.717438 
	C26.739464,150.048126 25.038929,154.610748 24.200167,158.965439 
	C23.486574,162.670258 21.822388,165.023071 17.459986,164.159912 
	C16.234423,163.917435 14.856514,164.462540 13.546145,164.627853 
	C9.017780,165.199097 5.945253,162.695389 5.535851,158.093918 
	C5.316465,155.628113 5.120804,153.160233 4.998579,150.311462 
M18.226688,157.448685 
	C20.642513,156.490631 22.030457,154.814270 21.771118,152.115326 
	C21.607761,150.415253 20.535145,149.390793 18.888342,149.150620 
	C16.497028,148.801865 14.018355,148.693695 13.248049,151.713989 
	C12.347178,155.246185 14.233192,156.965302 18.226688,157.448685 
z"/>
<path fill="#000000" opacity="1.000000" stroke="none" 
	d="
M63.570755,113.377182 
	C62.439266,119.991089 58.683292,115.022240 56.041336,115.851746 
	C55.094898,112.726509 56.272930,110.439262 57.257912,108.177101 
	C60.940792,108.064934 63.265511,109.262573 63.570755,113.377182 
z"/>
<path fill="#000000" opacity="1.000000" stroke="none" 
	d="
M106.496078,181.919785 
	C108.625122,181.922745 110.457504,181.542526 112.029243,182.737900 
	C110.251770,186.110184 107.109116,186.893524 104.768921,184.573914 
	C102.675629,182.499023 104.588272,182.274796 106.496078,181.919785 
z"/>
</svg>