<svg version="1.1" id="Layer_1" xmlns="http://www.w3.org/2000/svg" xmlns:xlink="http://www.w3.org/1999/xlink" x="0px" y="0px"
	 width="100%" viewBox="0 0 1024 1024" enable-background="new 0 0 1024 1024" xml:space="preserve">
<path fill="#000000" opacity="1.000000" stroke="none" 
	d="
M848.987061,144.996460 
	C894.377319,184.685883 922.466370,233.796829 931.296875,293.174561 
	C942.143433,366.108276 923.208130,431.049133 876.571655,488.006866 
	C870.655273,495.232605 864.229187,502.028320 857.291809,508.274231 
	C854.270691,510.994263 853.299255,513.932068 853.310669,517.891052 
	C853.422058,556.554504 853.401184,595.218384 853.342529,633.882019 
	C853.326111,644.712341 845.105713,652.299927 834.724976,651.243896 
	C830.025879,650.765869 826.382080,648.319092 823.103638,645.007141 
	C799.304443,620.964539 775.384583,597.040771 751.674866,572.910522 
	C748.182800,569.356567 745.055603,567.975830 739.900269,569.133789 
	C723.126709,572.901367 706.068298,574.740540 688.850037,574.241760 
	C684.377319,574.112183 683.210266,575.671143 683.220642,579.988098 
	C683.343384,631.150635 683.330627,682.313660 683.273132,733.476440 
	C683.241394,761.770325 674.921753,787.337830 656.950989,809.331604 
	C636.762695,834.039246 610.699280,848.421204 578.929504,852.404358 
	C572.610901,853.196594 566.309631,853.284607 559.981873,853.285095 
	C503.319427,853.289062 446.657013,853.282715 389.994568,853.283325 
	C383.305969,853.283447 383.280212,853.463013 383.580505,859.911072 
	C384.239624,874.063660 383.823090,888.223633 383.651764,902.381836 
	C383.569122,909.207458 383.884644,916.041626 383.667877,922.860779 
	C383.435242,930.180603 379.951172,935.692383 372.975433,938.276611 
	C365.938019,940.883789 359.643646,939.280090 354.171906,933.990784 
	C338.716553,919.050903 323.170471,904.204834 307.656891,889.325195 
	C296.592377,878.713013 285.471069,868.159119 274.488403,857.462891 
	C271.444946,854.498779 268.238678,853.130432 263.852692,853.186157 
	C245.523712,853.419067 227.189682,853.354553 208.858124,853.268433 
	C151.847351,853.000610 102.982140,811.407166 93.538864,755.257446 
	C92.347725,748.174927 91.683395,741.087219 91.685364,733.904236 
	C91.708748,648.410583 91.666313,562.916992 91.695732,477.423340 
	C91.715256,420.696228 130.280182,373.084686 185.732605,361.289337 
	C194.052811,359.519531 202.491791,358.717987 211.020798,358.722870 
	C276.349243,358.760071 341.677673,358.755493 407.006134,358.724030 
	C409.273834,358.722931 411.655518,359.301544 414.043945,357.931488 
	C413.612152,349.353577 412.851410,340.743683 412.794739,332.129089 
	C412.070374,222.058350 485.376465,124.646622 590.791443,95.448463 
	C611.918457,89.596649 633.397949,86.274086 655.363281,86.633522 
	C674.844116,86.952309 694.341187,85.769524 713.808044,87.596443 
	C748.663696,90.867569 781.227173,101.306656 811.625366,118.562004 
	C824.844482,126.065712 837.217163,134.809341 848.987061,144.996460 
M649.024048,711.500000 
	C649.019165,709.500549 649.010498,707.501099 649.009888,705.501648 
	C648.997070,664.002625 648.932068,622.503418 649.048584,581.004700 
	C649.061462,576.427979 648.311951,574.215210 642.921021,573.978943 
	C633.805481,573.579407 624.601440,572.732361 615.673096,570.906799 
	C517.922791,550.919495 453.604431,493.302032 422.681458,398.495728 
	C421.264526,394.151489 419.281769,392.900940 414.942810,392.907104 
	C346.611206,393.004303 278.279327,392.959351 209.947525,392.928986 
	C201.909180,392.925415 193.999481,393.781799 186.266800,396.053802 
	C149.772705,406.776459 125.430092,439.564026 125.398811,478.391632 
	C125.331001,562.556335 125.384613,646.721252 125.337875,730.886047 
	C125.333878,738.078125 126.023720,745.175171 127.340233,752.221924 
	C134.080673,788.300720 166.418533,817.143921 203.131897,818.729126 
	C226.410477,819.734192 249.751389,819.576599 273.060883,819.421875 
	C280.483856,819.372681 286.175568,821.635742 291.362732,826.745667 
	C303.709198,838.908081 316.287262,850.835938 328.808289,862.820312 
	C335.469971,869.196533 342.207733,875.493225 349.762085,882.629761 
	C349.762085,879.550049 349.762787,877.754517 349.761993,875.958984 
	C349.756256,862.959290 349.658325,849.958862 349.774506,836.960205 
	C349.860931,827.286072 355.923035,820.611023 365.512451,819.431274 
	C368.146240,819.107178 370.831238,819.113831 373.492767,819.113098 
	C436.824677,819.095398 500.161163,818.636475 563.486938,819.259277 
	C605.172791,819.669250 639.083618,790.306335 647.147278,753.830627 
	C650.172302,740.147278 648.661316,726.287903 649.024048,711.500000 
M751.114441,129.448059 
	C735.250122,124.773949 719.114990,121.629288 702.554199,120.961746 
	C675.244141,119.860924 647.860474,118.862526 620.820740,123.605888 
	C572.496216,132.083069 531.444580,154.690811 499.499512,191.787323 
	C451.510010,247.515518 435.333374,312.221069 454.108734,383.367188 
	C473.837952,458.127930 522.697144,506.998627 595.971191,531.386230 
	C619.492615,539.214844 643.909058,540.518738 668.475159,540.588440 
	C694.326904,540.661804 720.135742,540.366455 745.206299,532.966431 
	C753.365234,530.558228 759.758484,532.683960 765.557007,538.574036 
	C781.923523,555.198975 798.423035,571.693176 814.906799,588.202209 
	C816.138245,589.435547 817.047119,591.159851 819.652344,591.700500 
	C819.652344,589.738708 819.652100,587.966614 819.652405,586.194519 
	C819.656738,559.364502 819.756287,532.533936 819.598572,505.704895 
	C819.559143,499.000641 821.863708,493.799377 826.982544,489.585938 
	C835.757080,482.363495 843.628601,474.212769 850.904602,465.502167 
	C883.682922,426.261017 899.977417,380.820709 900.401550,329.922821 
	C900.615051,304.287720 895.992371,279.163452 886.356995,255.273453 
	C861.067993,192.571594 816.026917,150.862381 751.114441,129.448059 
z"/>
<path fill="#000000" opacity="1.000000" stroke="none" 
	d="
M234.000000,588.888062 
	C338.961761,588.891479 443.423492,588.897095 547.885254,588.890869 
	C551.223022,588.890625 554.548340,588.873108 557.796631,589.812744 
	C565.022705,591.902893 570.184509,598.733215 570.159058,606.196472 
	C570.135071,613.227295 564.866516,620.151428 557.921082,622.179871 
	C555.186829,622.978333 552.370972,623.155212 549.516907,623.154602 
	C431.893311,623.131470 314.269714,623.122925 196.646103,623.155884 
	C190.209473,623.157654 184.279846,621.999817 180.077621,616.692566 
	C175.784317,611.270386 174.995956,605.188171 177.913925,598.863831 
	C181.054642,592.056824 186.875244,589.096863 194.015869,588.977722 
	C207.174088,588.758118 220.338287,588.898193 234.000000,588.888062 
z"/>
<path fill="#000000" opacity="1.000000" stroke="none" 
	d="
M554.288086,704.265869 
	C564.596008,706.300293 570.840149,713.549133 570.113281,722.213684 
	C569.314209,731.738403 561.502991,738.213074 550.609802,738.214600 
	C447.636871,738.228760 344.663940,738.220581 241.690994,738.217529 
	C225.861832,738.217041 210.030869,738.355103 194.204102,738.158325 
	C182.173233,738.008789 174.157501,728.299255 176.755264,717.309021 
	C178.358566,710.526062 182.727768,706.259216 189.522507,704.732239 
	C191.932953,704.190491 194.476913,704.052673 196.960037,704.051941 
	C314.429169,704.015808 431.898285,704.014465 549.367432,704.017944 
	C550.864563,704.018005 552.361755,704.130981 554.288086,704.265869 
z"/>
<path fill="#000000" opacity="1.000000" stroke="none" 
	d="
M360.000000,508.013031 
	C306.001343,508.009521 252.502701,508.012421 199.004059,507.984802 
	C196.347061,507.983429 193.657669,507.931274 191.039200,507.534363 
	C181.991455,506.162964 175.765198,498.833801 176.216614,490.306122 
	C176.693329,481.301025 183.476288,474.495850 192.632446,473.859406 
	C193.628159,473.790253 194.631531,473.822357 195.631348,473.822266 
	C261.296356,473.816681 326.961365,473.807281 392.626373,473.813843 
	C403.606445,473.814941 410.233643,478.289001 412.362305,487.036224 
	C414.629639,496.353210 408.905579,505.563751 399.436554,507.313110 
	C390.691315,508.928711 381.813995,507.763000 372.999237,508.004852 
	C368.835876,508.119110 364.666595,508.017242 360.000000,508.013031 
z"/>
<path fill="#000000" opacity="1.000000" stroke="none" 
	d="
M811.218018,253.841919 
	C847.961121,319.084900 833.207764,401.973999 776.671143,450.369019 
	C747.679443,475.185760 714.064514,488.289429 676.136047,488.822388 
	C603.478577,489.843384 540.759460,442.802582 521.990479,374.021545 
	C505.695099,314.305267 520.128174,261.455994 563.968384,217.691635 
	C591.385315,190.322205 625.258484,175.318939 664.132019,173.758560 
	C728.710449,171.166397 777.443054,198.621445 811.218018,253.841919 
M596.619446,234.137344 
	C554.035583,268.587280 538.905029,323.722839 557.961914,375.005127 
	C577.918030,428.706909 634.948120,462.214142 691.524841,453.478180 
	C760.716675,442.794312 807.800720,378.407959 795.361267,309.632843 
	C778.589417,216.905701 671.264832,176.247910 596.619446,234.137344 
z"/>
<path fill="#000000" opacity="1.000000" stroke="none" 
	d="
M612.724731,407.035370 
	C611.543335,399.811920 613.869019,394.327026 618.859070,389.635651 
	C649.288818,361.027802 698.583679,361.117126 728.612000,389.901733 
	C739.104980,399.960114 736.341675,415.580048 723.237610,419.612946 
	C716.285889,421.752411 710.373596,419.771118 704.915588,414.868195 
	C690.457153,401.880280 673.940430,398.946167 655.780273,405.928802 
	C650.608582,407.917358 646.089355,411.045624 642.018372,414.815613 
	C631.369629,424.676880 617.706055,421.218781 612.724731,407.035370 
z"/>
<path fill="#000000" opacity="1.000000" stroke="none" 
	d="
M701.254761,285.721710 
	C718.218750,285.722687 734.716431,285.540558 751.207642,285.790283 
	C765.235535,286.002716 773.157166,299.789978 766.320923,311.604950 
	C763.195618,317.006439 758.221375,319.688477 752.271484,319.777039 
	C734.948914,320.034912 717.612366,320.238983 700.297607,319.810059 
	C690.119995,319.557892 683.669312,312.353760 683.667664,302.845856 
	C683.666016,293.205811 690.111572,286.759521 701.254761,285.721710 
z"/>
<path fill="#000000" opacity="1.000000" stroke="none" 
	d="
M653.861572,318.248810 
	C651.077576,318.938263 648.657959,319.927826 646.232666,319.941925 
	C629.269165,320.040863 612.298035,320.206512 595.342712,319.797577 
	C585.466797,319.559448 578.953186,312.922516 578.612610,304.065796 
	C578.204285,293.446808 585.153320,285.872498 595.870178,285.766754 
	C612.500854,285.602600 629.134644,285.654266 645.766357,285.749023 
	C654.348206,285.797943 661.152710,290.869110 663.021179,298.246552 
	C665.040222,306.218445 661.855225,313.404846 653.861572,318.248810 
z"/>
</svg>